<svg width="521" height="313" viewBox="0 0 521 313" fill="none" xmlns="http://www.w3.org/2000/svg">
<g clip-path="url(#clip0)">
<path d="M469.957 129.122H164.284C162.986 129.122 161.741 129.836 160.823 131.107C159.906 132.378 159.39 134.102 159.39 135.899C159.39 137.697 159.906 139.42 160.823 140.691C161.741 141.962 162.986 142.676 164.284 142.676H172.942V304.81C172.942 306.608 173.458 308.332 174.376 309.603C175.293 310.874 176.538 311.588 177.836 311.588C179.134 311.588 180.379 310.874 181.296 309.603C182.214 308.332 182.73 306.608 182.73 304.81L182.804 142.676H428.138L450.759 304.81C450.759 306.608 451.274 308.332 452.192 309.603C453.11 310.874 454.355 311.588 455.652 311.588C456.95 311.588 458.195 310.874 459.113 309.603C460.031 308.332 460.546 306.608 460.546 304.81L461.97 142.676H469.957C471.255 142.676 472.5 141.962 473.418 140.691C474.336 139.42 474.851 137.697 474.851 135.899C474.851 134.102 474.336 132.378 473.418 131.107C472.5 129.836 471.255 129.122 469.957 129.122Z" fill="#CCCCCC"/>
<path d="M217.268 98.923V127.623H165.347C163.987 127.689 162.63 127.382 161.355 126.722C160.079 126.061 158.91 125.059 157.915 123.773C156.919 122.487 156.116 120.942 155.552 119.226C154.987 117.51 154.672 115.657 154.625 113.772C154.578 111.888 154.799 110.009 155.276 108.243C155.753 106.477 156.476 104.858 157.405 103.479C158.334 102.1 159.449 100.988 160.688 100.206C161.928 99.4247 163.266 98.9886 164.626 98.923C164.867 98.9114 165.107 98.9114 165.347 98.923L217.268 98.923Z" fill="#F2F2F2"/>
<path d="M218.544 127.402C218.544 127.695 218.46 127.976 218.31 128.183C218.161 128.39 217.958 128.506 217.747 128.506H164.423C161.528 128.503 158.752 126.909 156.706 124.073C154.66 121.237 153.51 117.392 153.51 113.383C153.51 109.374 154.66 105.53 156.706 102.694C158.752 99.858 161.528 98.2635 164.423 98.2607H217.747C217.851 98.2603 217.955 98.2886 218.052 98.3439C218.149 98.3992 218.237 98.4805 218.312 98.583C218.386 98.6855 218.445 98.8073 218.485 98.9415C218.525 99.0756 218.546 99.2193 218.546 99.3645C218.546 99.5097 218.525 99.6535 218.485 99.7876C218.445 99.9217 218.386 100.044 218.312 100.146C218.237 100.249 218.149 100.33 218.052 100.385C217.955 100.44 217.851 100.469 217.747 100.468H164.423C161.952 100.474 159.583 101.837 157.837 104.258C156.092 106.679 155.111 109.962 155.111 113.383C155.111 116.805 156.092 120.087 157.837 122.509C159.583 124.93 161.952 126.293 164.423 126.298H217.747C217.958 126.299 218.161 126.415 218.31 126.622C218.46 126.829 218.544 127.11 218.544 127.402Z" fill="#EC0D13"/>
<path d="M217.268 105.546H161.473C161.431 105.546 161.391 105.524 161.361 105.483C161.331 105.442 161.314 105.386 161.313 105.327C161.313 105.269 161.329 105.213 161.359 105.171C161.388 105.129 161.428 105.105 161.47 105.105H217.268C217.31 105.105 217.35 105.129 217.38 105.17C217.41 105.211 217.426 105.267 217.426 105.325C217.426 105.384 217.41 105.439 217.38 105.481C217.35 105.522 217.31 105.546 217.268 105.546Z" fill="#CCCCCC"/>
<path d="M217.268 110.845H161.473C161.431 110.845 161.391 110.822 161.361 110.781C161.331 110.74 161.314 110.684 161.313 110.626C161.313 110.567 161.329 110.511 161.359 110.469C161.388 110.428 161.428 110.404 161.47 110.403H217.268C217.31 110.404 217.35 110.427 217.38 110.469C217.41 110.51 217.426 110.566 217.426 110.624C217.426 110.682 217.41 110.738 217.38 110.779C217.35 110.821 217.31 110.844 217.268 110.845Z" fill="#CCCCCC"/>
<path d="M217.268 116.143H161.473C161.431 116.143 161.391 116.121 161.361 116.08C161.331 116.039 161.314 115.983 161.313 115.924C161.313 115.866 161.329 115.81 161.359 115.768C161.388 115.726 161.428 115.702 161.47 115.702H217.268C217.31 115.702 217.35 115.726 217.38 115.767C217.41 115.808 217.426 115.864 217.426 115.922C217.426 115.98 217.41 116.036 217.38 116.078C217.35 116.119 217.31 116.142 217.268 116.143Z" fill="#CCCCCC"/>
<path d="M217.268 121.441H161.473C161.431 121.442 161.391 121.419 161.361 121.378C161.331 121.337 161.314 121.281 161.313 121.223C161.313 121.164 161.329 121.108 161.359 121.066C161.388 121.025 161.428 121.001 161.47 121H217.268C217.31 121.001 217.35 121.024 217.38 121.065C217.41 121.107 217.426 121.163 217.426 121.221C217.426 121.279 217.41 121.335 217.38 121.376C217.35 121.417 217.31 121.441 217.268 121.441Z" fill="#CCCCCC"/>
<path d="M207.481 68.6858V97.3859H155.56C152.812 97.5183 150.138 96.1334 148.127 93.5359C146.116 90.9383 144.933 87.3409 144.837 83.5351C144.742 79.7292 145.742 76.0266 147.617 73.2419C149.493 70.4571 152.091 68.8182 154.839 68.6858C155.079 68.6742 155.319 68.6742 155.56 68.6858H207.481Z" fill="#F2F2F2"/>
<path d="M208.756 97.1651C208.756 97.4578 208.672 97.7385 208.523 97.9455C208.373 98.1525 208.17 98.2688 207.959 98.2689H154.635C151.739 98.2689 148.961 96.6757 146.914 93.8396C144.866 91.0035 143.715 87.157 143.715 83.1462C143.715 79.1354 144.866 75.2889 146.914 72.4529C148.961 69.6168 151.739 68.0235 154.635 68.0235H207.959C208.064 68.0235 208.167 68.0521 208.264 68.1076C208.361 68.163 208.449 68.2443 208.523 68.3468C208.597 68.4493 208.655 68.571 208.695 68.7049C208.735 68.8389 208.756 68.9824 208.756 69.1274C208.756 69.2723 208.735 69.4159 208.695 69.5498C208.655 69.6837 208.597 69.8054 208.523 69.9079C208.449 70.0104 208.361 70.0917 208.264 70.1472C208.167 70.2027 208.064 70.2312 207.959 70.2312H154.635C152.162 70.2312 149.79 71.5919 148.041 74.0139C146.292 76.436 145.309 79.721 145.309 83.1462C145.309 86.5715 146.292 89.8565 148.041 92.2785C149.79 94.7006 152.162 96.0613 154.635 96.0613H207.959C208.17 96.0614 208.373 96.1777 208.523 96.3847C208.672 96.5917 208.756 96.8724 208.756 97.1651Z" fill="#3F3D56"/>
<path d="M207.481 75.3089H151.686C151.644 75.3092 151.603 75.2864 151.573 75.2454C151.543 75.2044 151.526 75.1486 151.526 75.0902C151.525 75.0318 151.541 74.9755 151.571 74.9338C151.6 74.892 151.641 74.8681 151.683 74.8674H207.481C207.523 74.8679 207.563 74.8915 207.592 74.9328C207.622 74.9741 207.639 75.0299 207.639 75.0881C207.639 75.1463 207.622 75.2021 207.592 75.2435C207.563 75.2848 207.523 75.3083 207.481 75.3089Z" fill="#CCCCCC"/>
<path d="M207.481 80.6074H151.686C151.644 80.6077 151.603 80.5849 151.573 80.5439C151.543 80.5029 151.526 80.4471 151.526 80.3887C151.525 80.3303 151.541 80.274 151.571 80.2323C151.6 80.1905 151.641 80.1666 151.683 80.1658H207.481C207.523 80.1664 207.563 80.19 207.592 80.2313C207.622 80.2726 207.639 80.3284 207.639 80.3866C207.639 80.4448 207.622 80.5006 207.592 80.542C207.563 80.5833 207.523 80.6068 207.481 80.6074Z" fill="#CCCCCC"/>
<path d="M207.481 85.9058H151.686C151.644 85.9061 151.603 85.8833 151.573 85.8423C151.543 85.8013 151.526 85.7455 151.526 85.6871C151.525 85.6287 151.541 85.5725 151.571 85.5307C151.6 85.489 151.641 85.4651 151.683 85.4643H207.481C207.523 85.4649 207.563 85.4884 207.592 85.5297C207.622 85.5711 207.639 85.6269 207.639 85.6851C207.639 85.7433 207.622 85.7991 207.592 85.8404C207.563 85.8817 207.523 85.9053 207.481 85.9058Z" fill="#CCCCCC"/>
<path d="M207.481 91.2043H151.686C151.644 91.2046 151.603 91.1817 151.573 91.1407C151.543 91.0998 151.526 91.0439 151.526 90.9855C151.525 90.9271 151.541 90.8709 151.571 90.8291C151.6 90.7874 151.641 90.7635 151.683 90.7627H207.481C207.523 90.7633 207.563 90.7868 207.592 90.8282C207.622 90.8695 207.639 90.9253 207.639 90.9835C207.639 91.0417 207.622 91.0975 207.592 91.1388C207.563 91.1802 207.523 91.2037 207.481 91.2043Z" fill="#CCCCCC"/>
<path d="M267.881 230.679V205.655C267.881 204.549 267.563 203.488 266.999 202.706C266.434 201.924 265.668 201.484 264.869 201.484H196.356C195.557 201.484 194.791 201.924 194.227 202.706C193.662 203.488 193.345 204.549 193.345 205.655V230.679H267.881Z" fill="#CCCCCC"/>
<path d="M267.881 240.063H193.345V272.385H267.881V240.063Z" fill="#CCCCCC"/>
<path d="M193.345 281.769V306.793C193.345 307.899 193.662 308.96 194.227 309.742C194.791 310.525 195.557 310.964 196.356 310.964H264.869C265.668 310.964 266.434 310.525 266.999 309.742C267.563 308.96 267.881 307.899 267.881 306.793V281.769H193.345Z" fill="#CCCCCC"/>
<path d="M230.236 220.252C231.484 220.252 232.495 218.852 232.495 217.124C232.495 215.397 231.484 213.996 230.236 213.996C228.989 213.996 227.978 215.397 227.978 217.124C227.978 218.852 228.989 220.252 230.236 220.252Z" fill="white"/>
<path d="M230.236 261.959C231.484 261.959 232.495 260.558 232.495 258.831C232.495 257.103 231.484 255.703 230.236 255.703C228.989 255.703 227.978 257.103 227.978 258.831C227.978 260.558 228.989 261.959 230.236 261.959Z" fill="white"/>
<path d="M230.357 302.782C231.605 302.782 232.616 301.382 232.616 299.654C232.616 297.927 231.605 296.526 230.357 296.526C229.11 296.526 228.099 297.927 228.099 299.654C228.099 301.382 229.11 302.782 230.357 302.782Z" fill="white"/>
<path d="M259.43 172.952V201.652H207.509C204.762 201.782 202.09 200.396 200.081 197.799C198.072 195.201 196.889 191.606 196.794 187.801C196.698 183.997 197.697 180.296 199.571 177.512C201.445 174.727 204.041 173.087 206.788 172.952C207.028 172.941 207.269 172.941 207.509 172.952H259.43Z" fill="#F2F2F2"/>
<path d="M260.706 201.431C260.705 201.724 260.621 202.005 260.472 202.212C260.323 202.419 260.12 202.535 259.908 202.535H206.584C203.689 202.536 200.912 200.945 198.863 198.11C196.815 195.276 195.664 191.431 195.662 187.422C195.66 183.412 196.808 179.565 198.854 176.727C200.9 173.89 203.676 172.294 206.571 172.29H259.908C260.013 172.289 260.117 172.318 260.214 172.373C260.311 172.428 260.399 172.51 260.473 172.612C260.548 172.715 260.607 172.836 260.647 172.971C260.687 173.105 260.708 173.248 260.708 173.394C260.708 173.539 260.687 173.683 260.647 173.817C260.607 173.951 260.548 174.073 260.473 174.175C260.399 174.278 260.311 174.359 260.214 174.414C260.117 174.47 260.013 174.498 259.908 174.497H206.584C204.113 174.502 201.744 175.865 199.998 178.286C198.252 180.708 197.271 183.99 197.271 187.412C197.271 190.835 198.252 194.117 199.998 196.539C201.744 198.96 204.113 200.323 206.584 200.327H259.908C260.12 200.328 260.323 200.444 260.472 200.651C260.621 200.858 260.705 201.139 260.706 201.431Z" fill="#3F3D56"/>
<path d="M259.43 179.575H203.635C203.593 179.575 203.553 179.553 203.522 179.512C203.492 179.471 203.475 179.415 203.475 179.356C203.475 179.298 203.491 179.242 203.52 179.2C203.55 179.158 203.59 179.134 203.632 179.134H259.43C259.472 179.134 259.512 179.158 259.542 179.199C259.571 179.24 259.588 179.296 259.588 179.354C259.588 179.413 259.571 179.468 259.542 179.51C259.512 179.551 259.472 179.575 259.43 179.575H259.43Z" fill="#CCCCCC"/>
<path d="M259.43 184.874H203.635C203.593 184.874 203.553 184.851 203.522 184.81C203.492 184.769 203.475 184.713 203.475 184.655C203.475 184.597 203.491 184.54 203.52 184.499C203.55 184.457 203.59 184.433 203.632 184.432H259.43C259.472 184.433 259.512 184.456 259.542 184.498C259.571 184.539 259.588 184.595 259.588 184.653C259.588 184.711 259.571 184.767 259.542 184.808C259.512 184.85 259.472 184.873 259.43 184.874H259.43Z" fill="#CCCCCC"/>
<path d="M259.43 190.172H203.635C203.593 190.172 203.553 190.15 203.522 190.109C203.492 190.068 203.475 190.012 203.475 189.953C203.475 189.895 203.491 189.839 203.52 189.797C203.55 189.755 203.59 189.731 203.632 189.731H259.43C259.472 189.731 259.512 189.755 259.542 189.796C259.571 189.837 259.588 189.893 259.588 189.951C259.588 190.01 259.571 190.065 259.542 190.107C259.512 190.148 259.472 190.172 259.43 190.172H259.43Z" fill="#CCCCCC"/>
<path d="M259.43 195.471H203.635C203.593 195.471 203.553 195.448 203.522 195.407C203.492 195.366 203.475 195.31 203.475 195.252C203.475 195.193 203.491 195.137 203.52 195.095C203.55 195.054 203.59 195.03 203.632 195.029H259.43C259.472 195.03 259.512 195.053 259.542 195.094C259.571 195.136 259.588 195.192 259.588 195.25C259.588 195.308 259.571 195.364 259.542 195.405C259.512 195.446 259.472 195.47 259.43 195.471H259.43Z" fill="#CCCCCC"/>
<path d="M198.452 59.1116H174.796C174.571 59.1113 174.35 59.1827 174.149 59.3201L168.178 63.4594C167.982 63.5751 167.814 63.7683 167.696 64.0148C167.578 64.2614 167.516 64.5505 167.516 64.8462C167.516 65.1418 167.578 65.4309 167.696 65.6775C167.814 65.9241 167.982 66.1172 168.178 66.2329L174.149 70.3722C174.35 70.5097 174.571 70.5811 174.796 70.5808H198.452C198.778 70.6069 199.098 70.4541 199.343 70.1555C199.588 69.8569 199.739 69.4366 199.762 68.9855V60.7068C199.739 60.2557 199.588 59.8354 199.343 59.5368C199.098 59.2382 198.778 59.0854 198.452 59.1116Z" fill="#3F3D56"/>
<path d="M199.762 60.7069V68.9855C199.739 69.4366 199.588 69.857 199.343 70.1556C199.098 70.4542 198.778 70.607 198.452 70.5809H193.739V59.1116H198.452C198.778 59.0854 199.098 59.2382 199.343 59.5368C199.588 59.8354 199.739 60.2558 199.762 60.7069Z" fill="#4F4F4F"/>
<path d="M56.6281 221.329C59.6741 222.812 62.9446 223.184 66.1243 222.408C69.3041 221.632 72.286 219.736 74.7828 216.901C81.1416 209.509 83.1353 197.332 84.7575 186.057C86.3568 174.94 87.9562 163.824 89.5555 152.707L79.5103 162.286C72.2863 169.175 64.8996 176.284 59.8978 186.262C54.8959 196.239 52.7126 209.86 56.7314 220.657" fill="#E6E6E6"/>
<path d="M57.4868 261.707C56.4701 251.45 55.4247 241.063 56.1378 230.696C56.7712 221.49 58.7993 212.498 62.9282 205.126C65.1199 201.22 67.7867 197.873 70.8088 195.236C71.5968 194.547 72.3221 196.277 71.5375 196.963C66.3084 201.539 62.2639 208.298 59.9872 216.263C57.4725 225.121 57.0687 234.776 57.502 244.186C57.7641 249.876 58.3195 255.529 58.8791 261.175C58.9232 261.43 58.8957 261.699 58.8021 261.928C58.7085 262.156 58.5558 262.326 58.3749 262.405C58.1903 262.474 57.9935 262.439 57.8273 262.308C57.661 262.178 57.5387 261.961 57.4868 261.707L57.4868 261.707Z" fill="#F2F2F2"/>
<path d="M67.2796 243.558C68.586 246.308 70.3817 248.545 72.4937 250.055C74.6058 251.564 76.9629 252.295 79.3381 252.177C85.4424 251.776 90.5314 245.876 95.1124 240.274L108.662 223.706L99.6945 223.112C93.2455 222.684 86.63 222.286 80.4875 225.04C74.345 227.794 68.68 234.423 67.5568 243.228" fill="#E6E6E6"/>
<path d="M54.6135 267.602C59.5071 255.611 65.1832 242.284 75.3256 238.024C78.1456 236.844 81.1026 236.421 84.0374 236.778C84.9623 236.889 84.7313 238.863 83.8081 238.753C78.8888 238.187 73.9791 239.986 69.9054 243.847C65.9853 247.542 62.9332 252.679 60.3498 258.127C58.7675 261.464 57.3501 264.943 55.9324 268.417C55.4794 269.527 54.1551 268.726 54.6135 267.602L54.6135 267.602Z" fill="#F2F2F2"/>
<path d="M46.7726 280.224C46.9374 277.578 47.6234 275.046 48.7557 272.903C49.888 270.759 51.4232 269.087 53.1942 268.069V261.136H61.5902V268.287C63.2741 269.356 64.7232 271.024 65.7899 273.121C66.8566 275.218 67.5027 277.669 67.6623 280.224L69.6365 312.007H44.7983L46.7726 280.224Z" fill="#F2F2F2"/>
<path d="M332.305 128.47L329.808 127.014L328.094 109.674H305.277L303.42 126.943L301.186 128.49C301.079 128.564 300.993 128.686 300.942 128.836C300.892 128.986 300.879 129.155 300.907 129.316C300.934 129.477 301 129.621 301.094 129.724C301.187 129.826 301.304 129.882 301.423 129.882H332.1C332.222 129.882 332.341 129.824 332.436 129.716C332.53 129.609 332.595 129.459 332.62 129.293C332.644 129.127 332.626 128.954 332.569 128.804C332.511 128.654 332.418 128.536 332.305 128.47Z" fill="#E6E6E6"/>
<path d="M372.853 111.981H260.77C260.182 111.979 259.618 111.654 259.203 111.078C258.787 110.501 258.554 109.72 258.554 108.906V87.0174H375.068V108.906C375.068 109.72 374.835 110.501 374.419 111.078C374.004 111.654 373.441 111.979 372.853 111.981Z" fill="#CCCCCC"/>
<path d="M375.185 97.3623H258.452V3.7071C258.453 2.72424 258.735 1.78196 259.237 1.08699C259.739 0.392016 260.419 0.00109213 261.129 -7.62939e-06H372.508C373.218 0.00109211 373.899 0.392017 374.4 1.08699C374.902 1.78196 375.185 2.72424 375.185 3.7071L375.185 97.3623Z" fill="#3F3D56"/>
<path d="M368.213 90.5648H265.424C264.877 90.564 264.352 90.2626 263.965 89.7268C263.578 89.1911 263.361 88.4646 263.36 87.7069V9.65544C263.361 8.89769 263.578 8.17122 263.965 7.63541C264.352 7.0996 264.877 6.7982 265.424 6.79733H368.213C368.76 6.7982 369.285 7.0996 369.672 7.63541C370.059 8.17122 370.276 8.89769 370.277 9.65544V87.7069C370.276 88.4646 370.059 89.1911 369.672 89.7268C369.285 90.2626 368.76 90.564 368.213 90.5648Z" fill="white"/>
<path d="M341.14 118.105C341.804 117.256 342.594 116.619 343.454 116.239C344.315 115.859 345.225 115.744 346.121 115.904C347.018 116.063 347.877 116.493 348.641 117.163C349.404 117.832 350.052 118.726 350.538 119.779L364.442 116.356L368.005 127.55L348.321 132.002C346.989 133.018 345.433 133.321 343.95 132.854C342.467 132.388 341.159 131.184 340.274 129.471C339.388 127.758 338.988 125.655 339.147 123.56C339.307 121.465 340.016 119.524 341.14 118.105Z" fill="#FFB6B6"/>
<path d="M354.013 132.398L368.507 132.148L370.342 132.113L399.832 131.599C399.832 131.599 407.84 121.018 414.813 110.125L413.836 100.335C412.883 90.7265 409.441 81.9253 404.152 75.569C394.164 84.8109 388.373 103.104 388.373 103.104L370.088 109.161L368.259 109.767L356.897 113.527L354.013 132.398Z" fill="#EC0D13"/>
<path d="M428.212 192.573H401.156C401.156 194.178 371.58 195.481 371.58 195.481C370.928 196.162 370.333 196.942 369.808 197.808C368.229 200.416 367.366 203.712 367.371 207.115V209.442C367.372 213.298 368.479 216.997 370.448 219.724C372.417 222.45 375.088 223.983 377.872 223.984H428.212C430.997 223.981 433.666 222.448 435.635 219.721C437.604 216.995 438.711 213.298 438.713 209.442V207.115C438.71 203.26 437.602 199.564 435.633 196.838C433.665 194.112 430.996 192.578 428.212 192.573Z" fill="#E4E4E4"/>
<path d="M408.537 223.407H397.616V310.704H408.537V223.407Z" fill="#E4E4E4"/>
<path d="M366.534 310.173C366.534 311.807 383.083 310.805 403.497 310.805C423.911 310.805 440.46 311.807 440.46 310.173C440.46 308.539 423.911 295.58 403.497 295.58C383.083 295.58 366.534 308.539 366.534 310.173Z" fill="#E4E4E4"/>
<path d="M359.198 300.198L351.07 300.198L347.203 256.782L359.199 256.782L359.198 300.198Z" fill="#FFB6B6"/>
<path d="M361.27 311.109L335.063 311.108V310.649C335.063 306.902 336.138 303.309 338.051 300.66C339.964 298.011 342.558 296.523 345.264 296.522H345.264L361.271 296.523L361.27 311.109Z" fill="#2F2E41"/>
<path d="M335.175 300.198L327.047 300.198L323.181 256.782L335.176 256.782L335.175 300.198Z" fill="#FFB6B6"/>
<path d="M337.248 311.109L311.041 311.108V310.649C311.041 306.902 312.116 303.309 314.028 300.66C315.941 298.011 318.536 296.523 321.241 296.522H321.242L337.248 296.523L337.248 311.109Z" fill="#2F2E41"/>
<path d="M407.982 50.2467C415.787 50.2467 422.114 41.4844 422.114 30.6756C422.114 19.8668 415.787 11.1045 407.982 11.1045C400.177 11.1045 393.85 19.8668 393.85 30.6756C393.85 41.4844 400.177 50.2467 407.982 50.2467Z" fill="#FFB6B6"/>
<path d="M430.855 164.769C430.855 164.769 435.596 199.493 417.555 203.915C399.513 208.337 373.47 211.445 373.47 211.445L361.775 287.011L346.063 285.068C346.063 285.068 348.152 194.103 353.291 186.986C358.43 179.87 390.91 158.56 390.91 158.56L430.855 164.769Z" fill="#2F2E41"/>
<path d="M395.618 150.216L387.728 161.179C387.728 161.179 330.754 173.888 328.556 192.112C325.238 219.625 321.318 279.455 321.318 279.455L338.448 277.676L345.165 209.665L372.573 201.032L403.755 177.497L395.618 150.216Z" fill="#2F2E41"/>
<path d="M421.581 18.9931C420.186 15.348 418.414 8.08337 415.598 6.73605C414.034 6.01801 412.418 5.54121 410.779 5.31432L405.993 7.86355L408.598 5.05799C408.091 5.01615 407.584 4.98194 407.077 4.95538L403.848 6.67535L405.5 4.89586C402.489 4.85307 399.382 5.28657 397.049 7.82461C395.061 9.98829 393.09 18.1847 392.772 21.659C392.431 24.9827 392.55 28.3657 393.123 31.6277L393.941 32.7046C394.227 31.7962 394.442 30.8481 394.582 29.8763C394.876 28.0606 395.439 26.3495 396.236 24.8518C397.033 23.3542 398.047 22.103 399.212 21.1779L399.257 21.1431C400.628 20.0741 402.293 20.1234 403.865 20.2018L411.336 20.574C413.133 20.6636 415.068 20.8211 416.469 22.3824C417.36 23.5341 418.06 24.9388 418.522 26.5003C419.218 28.4463 420.579 35.7864 420.579 35.7864C420.579 35.7864 421.348 34.4009 421.717 35.4321C422.309 32.7416 422.669 29.9635 422.789 27.1558C422.907 24.3357 422.49 21.5219 421.581 18.9931Z" fill="#2F2E41"/>
<path d="M471.009 39.2703C470.107 39.3525 469.23 39.7075 468.438 40.3101C467.646 40.9128 466.96 41.7485 466.426 42.7585C465.893 43.7684 465.526 44.928 465.352 46.1555C465.177 47.3831 465.199 48.6487 465.416 49.8633L454.051 61.4725L457.461 72.7571L473.343 56.0505C474.793 55.411 476.022 54.0574 476.799 52.2464C477.576 50.4353 477.846 48.2926 477.558 46.2242C477.27 44.1558 476.444 42.3055 475.237 41.0239C474.03 39.7422 472.526 39.1183 471.009 39.2703Z" fill="#FFB6B6"/>
<path d="M469.18 62.9706L440.691 106.789C440.691 106.789 427.067 100.749 416.53 94.2002L411.796 74.0663C410.697 69.3955 410.228 64.4844 410.413 59.5785C425.019 54.1957 442.009 74.2241 442.009 74.2241L463.334 51.091L469.18 62.9706Z" fill="#EC0D13"/>
<path d="M402.704 168.006C397.621 165.574 392.365 163.06 386.696 162.116L386.453 162.076L386.52 161.749C392.388 133.214 390.924 114.96 388.048 87.5411C387.436 81.6267 388.222 75.597 390.288 70.352C392.354 65.107 395.59 60.9278 399.511 58.4384L399.546 58.4166L415.737 56.9918L415.774 56.9887L427.55 61.7849C429.244 62.4799 430.726 63.925 431.77 65.8986C432.815 67.8722 433.363 70.2654 433.331 72.7117C433.203 81.7291 433.474 91.7968 433.76 102.455C434.403 126.367 435.067 151.093 431.297 167.136L431.277 167.22L431.227 167.275C427.761 171.184 423.418 173.297 418.948 173.248C413.663 173.248 408.269 170.668 402.704 168.006Z" fill="#EC0D13"/>
<path d="M520.247 313H0.752891C0.553213 313 0.361714 312.89 0.22052 312.695C0.0793258 312.499 0 312.234 0 311.957C0 311.681 0.0793258 311.416 0.22052 311.22C0.361714 311.025 0.553213 310.915 0.752891 310.915H520.247C520.447 310.915 520.638 311.025 520.779 311.22C520.921 311.416 521 311.681 521 311.957C521 312.234 520.921 312.499 520.779 312.695C520.638 312.89 520.447 313 520.247 313Z" fill="#CCCCCC"/>
</g>
<defs>
<clipPath id="clip0">
<rect width="521" height="313" fill="white"/>
</clipPath>
</defs>
</svg>
