<svg width="70" height="70" viewBox="0 0 70 70" fill="none" xmlns="http://www.w3.org/2000/svg">
<path d="M0 0H70V70H0V0Z" fill="#F7DF1E"/>
<path d="M18.4056 58.4971L23.7625 55.2552C24.796 57.0876 25.7361 58.6379 27.9911 58.6379C30.1526 58.6379 31.5154 57.7923 31.5154 54.5034V32.1368H38.0936V54.5964C38.0936 61.4098 34.0999 64.511 28.2731 64.511C23.0107 64.511 19.9561 61.7856 18.4055 58.4966" fill="black"/>
<path d="M41.6667 57.7922L47.023 54.691C48.433 56.9937 50.2655 58.6851 53.5075 58.6851C56.2332 58.6851 57.9713 57.3223 57.9713 55.4428C57.9713 53.1873 56.1859 52.3885 53.1785 51.0732L51.5344 50.3679C46.7883 48.3478 43.64 45.8105 43.64 40.4537C43.64 35.5199 47.399 31.7607 53.2727 31.7607C57.4547 31.7607 60.462 33.2175 62.6232 37.0236L57.5014 40.3126C56.3736 38.2922 55.1523 37.4936 53.2729 37.4936C51.3463 37.4936 50.1245 38.7152 50.1245 40.3126C50.1245 42.2861 51.3463 43.0851 54.1653 44.3069L55.8098 45.0117C61.4014 47.4082 64.5498 49.8513 64.5498 55.3488C64.5498 61.2697 59.898 64.5116 53.6486 64.5116C47.5402 64.5116 43.5931 61.5985 41.6669 57.7922" fill="black"/>
</svg>
