<svg width="70" height="70" viewBox="0 0 70 70" fill="none" xmlns="http://www.w3.org/2000/svg">
<path d="M34.9874 66.4452C34.1512 66.4452 33.3026 66.2207 32.5664 65.7963L24.8665 61.2414C23.7185 60.5924 24.28 60.3679 24.6545 60.2429C26.1893 59.7063 26.5013 59.5942 28.136 58.6581C28.3109 58.5584 28.5355 58.5956 28.7101 58.7081L34.6254 62.2147C34.8376 62.3394 35.1368 62.3394 35.3366 62.2147L58.3863 48.9114C58.5986 48.7866 58.7356 48.5371 58.7356 48.2876V21.6813C58.7356 21.4192 58.5986 21.1821 58.374 21.045L35.3367 7.75414C35.1247 7.62932 34.8377 7.62932 34.6255 7.75414L11.6008 21.0573C11.3761 21.1821 11.239 21.4316 11.239 21.6937V48.2876C11.239 48.5371 11.3761 48.7866 11.6008 48.8991L17.9156 52.5431C21.3475 54.2526 23.444 52.2435 23.444 50.2095V23.9524C23.444 23.5781 23.7434 23.2911 24.118 23.2911H27.0382C27.4001 23.2911 27.7119 23.5781 27.7119 23.9524V50.222C27.7119 54.7894 25.216 57.4101 20.8858 57.4101C19.5504 57.4101 18.5021 57.4101 15.582 55.9625L9.54187 52.4807C8.04425 51.6195 7.12085 50.0097 7.12085 48.2752V21.6813C7.12085 19.9592 8.04425 18.3369 9.54187 17.4758L32.5664 4.17252C34.0264 3.34893 35.9608 3.34893 37.4084 4.17252L60.4584 17.4881C61.9559 18.3492 62.8793 19.959 62.8793 21.6937V48.2876C62.8793 50.0097 61.9559 51.6195 60.4584 52.4932L37.4084 65.7963C36.6721 66.2207 35.8358 66.4452 34.9874 66.4452ZM53.5946 40.2259C53.5946 35.2465 50.225 33.9237 43.1492 32.9879C35.9857 32.0394 35.2621 31.5526 35.2621 29.8804C35.2621 28.4953 35.8736 26.6483 41.1774 26.6483C45.9073 26.6483 47.6544 27.6716 48.3781 30.8664C48.4405 31.1659 48.7153 31.3905 49.0269 31.3905H52.0224C52.2093 31.3905 52.3841 31.3157 52.509 31.1783C52.634 31.0412 52.6962 30.8539 52.6833 30.6666C52.2219 25.1634 48.5652 22.6049 41.1774 22.6049C34.6008 22.6049 30.6823 25.3754 30.6823 30.0303C30.6823 35.0719 34.5882 36.4699 40.8902 37.0934C48.4405 37.8299 49.0269 38.9406 49.0269 40.4257C49.0269 42.9967 46.9556 44.0945 42.101 44.0945C35.9986 44.0945 34.6631 42.5596 34.2139 39.5273C34.164 39.2029 33.8893 38.9658 33.5525 38.9658H30.5698C30.1954 38.9658 29.9086 39.2653 29.9086 39.627C29.9086 43.5084 32.0176 48.1383 42.1136 48.1383C49.4014 48.1257 53.5946 45.2424 53.5946 40.2259Z" fill="#539E43"/>
</svg>
