<svg width="70" height="70" viewBox="0 0 70 70" fill="none" xmlns="http://www.w3.org/2000/svg">
<path d="M34.9416 40.81C38.1762 40.81 40.7983 38.1879 40.7983 34.9533C40.7983 31.7188 38.1762 29.0966 34.9416 29.0966C31.7071 29.0966 29.085 31.7188 29.085 34.9533C29.085 38.1879 31.7071 40.81 34.9416 40.81Z" fill="#00D8FF"/>
<path d="M34.9418 48.37C26.7168 48.37 19.5301 47.4017 14.1518 45.5584C10.6634 44.3684 7.70011 42.7817 5.58845 40.9734C3.34845 39.06 2.15845 36.9717 2.15845 34.9534C2.15845 31.08 6.40511 27.2883 13.5334 24.815C19.3668 22.785 26.9734 21.6533 34.9301 21.6533C42.7468 21.6533 50.2485 22.75 56.0468 24.7567C59.4418 25.9233 62.3001 27.44 64.3301 29.12C66.5351 30.9634 67.7018 32.9817 67.7018 34.9534C67.7018 38.9784 62.9535 43.05 55.3001 45.5817C49.8868 47.3784 42.6535 48.37 34.9418 48.37ZM34.9418 24.4533C27.3934 24.4533 19.9268 25.55 14.4668 27.4517C7.91011 29.7383 4.97011 32.865 4.97011 34.9534C4.97011 37.1234 8.13178 40.5417 15.0618 42.91C20.1484 44.6484 27.0318 45.57 34.9418 45.57C42.3618 45.57 49.2801 44.6367 54.4251 42.9217C61.6235 40.53 64.9135 37.1117 64.9135 34.9534C64.9135 33.845 64.0734 32.5384 62.5451 31.2667C60.7834 29.7967 58.2168 28.455 55.1485 27.3933C49.6301 25.5033 42.4551 24.4533 34.9418 24.4533Z" fill="#00D8FF"/>
<path d="M21.6535 64.1434C20.4635 64.1434 19.4135 63.8867 18.5269 63.3734C15.1785 61.4367 14.0119 55.86 15.4235 48.4517C16.5785 42.3733 19.4019 35.2333 23.3802 28.3383C27.2885 21.5717 31.9785 15.6217 36.6102 11.5967C39.3169 9.23999 42.0585 7.51332 44.5319 6.60332C47.2269 5.61166 49.5602 5.61166 51.2635 6.59166C54.7519 8.59833 55.9069 14.7583 54.2735 22.645C53.1185 28.245 50.3652 35 46.5152 41.685C42.4085 48.8017 37.9752 54.5417 33.6935 58.2867C30.9169 60.7134 28.0585 62.4867 25.4452 63.4084C24.0802 63.8984 22.7969 64.1434 21.6535 64.1434ZM24.5819 29.0383L25.7952 29.7383C22.0269 36.2717 19.2385 43.2833 18.1652 48.9767C16.8702 55.8017 18.1185 59.9084 19.9152 60.9467C20.3585 61.2034 20.9419 61.3434 21.6535 61.3434C23.9752 61.3434 27.6269 59.8734 31.8502 56.1867C35.8985 52.6517 40.1335 47.145 44.0885 40.2967C47.7985 33.8683 50.4352 27.405 51.5319 22.0967C53.0602 14.665 51.7419 10.115 49.8635 9.02999C48.9069 8.48166 47.3552 8.55166 45.4885 9.23999C43.3302 10.0333 40.8919 11.585 38.4419 13.72C34.0435 17.5467 29.5519 23.24 25.7952 29.75L24.5819 29.0383Z" fill="#00D8FF"/>
<path d="M48.23 64.1783C45.0567 64.1783 41.0317 62.265 36.8317 58.6483C32.1417 54.6117 27.37 48.6033 23.3801 41.7083C19.4601 34.9417 16.6601 27.9067 15.4817 21.875C14.7934 18.3517 14.6651 15.12 15.1084 12.5183C15.5984 9.68334 16.7534 7.66501 18.4684 6.67334C21.9451 4.65501 27.86 6.73167 33.88 12.0867C38.15 15.8783 42.63 21.6417 46.4917 28.315C50.61 35.4317 53.375 42.14 54.4717 47.7167C55.1833 51.3333 55.3 54.6933 54.7983 57.4233C54.2617 60.3283 53.0483 62.3933 51.2984 63.4083C50.4234 63.9217 49.385 64.1783 48.23 64.1783ZM25.8067 40.3083C29.5867 46.8417 34.2767 52.7567 38.6634 56.525C43.925 61.0517 48.1017 62.0317 49.91 60.9817C51.7883 59.8967 53.165 55.4517 51.7417 48.265C50.6917 42.9917 48.0434 36.575 44.0767 29.7267C40.355 23.2983 36.0734 17.78 32.025 14.1867C26.355 9.14667 21.7584 8.01501 19.8801 9.10001C18.9234 9.64834 18.2117 11.0367 17.8734 12.9967C17.4884 15.26 17.6051 18.1533 18.2351 21.3383C19.3551 27.0667 22.0384 33.7983 25.8067 40.3083Z" fill="#00D8FF"/>
</svg>
